<svg width="145" height="38" viewBox="0 0 145 38" fill="none" xmlns="http://www.w3.org/2000/svg">
<path d="M51.2 9.801L48.902 3.719L46.602 9.801H51.2ZM44.147 16.335H41.422L47.662 0.563H50.208L56.472 16.335H53.656L52.011 12.009H45.792L44.147 16.335ZM61.546 14.172V16.335H60.239C58.144 16.335 57.039 15.051 57.039 13.068V0.563H59.541V12.911C59.541 13.721 59.879 14.172 60.667 14.172H61.546ZM63.163 6.872H61.023V4.822H63.163V2.478L65.642 1.036V4.822H68.278V6.872H65.642V12.437C65.642 13.564 66.092 14.172 67.062 14.172H68.278V16.335H66.791C64.425 16.335 63.163 14.848 63.163 12.595V6.872ZM71.295 9.351H77.04C76.724 7.503 75.666 6.647 74.224 6.647C72.669 6.647 71.611 7.571 71.295 9.351ZM79.585 11.131H71.205C71.385 13.361 72.601 14.421 74.269 14.421C75.71 14.421 76.815 13.789 77.469 12.099L79.586 12.911C78.617 15.501 76.589 16.583 74.314 16.583C71.024 16.583 68.681 14.173 68.681 10.567C68.681 6.962 71.001 4.574 74.246 4.574C77.378 4.574 79.608 6.962 79.608 10.5C79.608 10.703 79.608 10.928 79.586 11.13L79.585 11.131ZM87.375 4.574V7.233H86.203C84.738 7.233 83.703 8.382 83.703 10.229V16.335H81.201V4.822H83.703V6.624C84.356 5.227 85.437 4.574 86.744 4.574H87.375ZM98.368 9.013V16.335H95.867V9.419C95.867 7.774 94.897 6.783 93.547 6.783C91.991 6.783 90.887 7.819 90.887 9.532V16.336H88.386V4.822H90.887V6.444C91.608 5.114 92.847 4.574 94.199 4.574C96.61 4.574 98.368 6.331 98.368 9.013ZM107.684 13.001C107.684 11.874 106.58 11.266 105.026 11.266C103.493 11.266 102.344 11.851 102.344 13.001C102.344 14.127 103.493 14.713 105.026 14.713C106.58 14.713 107.684 14.105 107.684 13.001ZM110.118 9.125V16.335H107.774V15.209C107.075 16.11 105.859 16.583 104.281 16.583C101.69 16.583 99.776 15.276 99.776 13.023C99.776 10.793 101.736 9.441 104.439 9.441C105.859 9.441 106.963 9.846 107.639 10.567V9.373C107.639 7.571 106.513 6.805 104.958 6.805C103.561 6.805 102.592 7.571 102.186 8.81L100.091 7.976C100.79 5.633 102.75 4.574 105.048 4.574C107.706 4.574 110.118 5.971 110.118 9.125ZM113.012 6.872H110.872V4.822H113.012V2.478L115.491 1.036V4.822H118.127V6.872H115.491V12.437C115.491 13.564 115.942 14.172 116.911 14.172H118.127V16.335H116.64C114.274 16.335 113.012 14.848 113.012 12.595V6.872ZM119.285 4.822H121.786V16.335H119.285V4.822ZM118.902 1.577C118.902 0.608 119.622 0 120.569 0C121.493 0 122.214 0.608 122.214 1.577C122.214 2.547 121.493 3.132 120.569 3.132C119.622 3.132 118.902 2.546 118.902 1.577ZM125.422 4.822L128.486 12.978L131.528 4.822H134.187L129.635 16.335H127.292L122.696 4.822H125.422ZM136.678 9.351H142.424C142.109 7.503 141.05 6.647 139.607 6.647C138.053 6.647 136.994 7.571 136.678 9.351ZM144.97 11.131H136.589C136.769 13.361 137.985 14.421 139.653 14.421C141.094 14.421 142.199 13.789 142.852 12.099L144.97 12.911C144.001 15.501 141.974 16.583 139.698 16.583C136.408 16.583 134.065 14.173 134.065 10.567C134.065 6.962 136.386 4.574 139.63 4.574C142.762 4.574 144.992 6.962 144.992 10.5C144.992 10.703 144.992 10.928 144.97 11.13V11.131ZM51.2 30.759L48.902 24.677L46.602 30.76H51.199L51.2 30.759ZM44.147 37.294H41.422L47.663 21.522H50.209L56.473 37.294H53.657L52.012 32.968H45.792L44.147 37.294ZM57.38 25.78H59.88V37.294H57.38V25.78ZM56.997 22.536C56.997 21.566 57.717 20.958 58.664 20.958C59.588 20.958 60.309 21.567 60.309 22.536C60.309 23.504 59.588 24.09 58.664 24.09C57.718 24.09 56.997 23.505 56.997 22.536ZM68.19 25.532V28.192H67.019C65.554 28.192 64.518 29.34 64.518 31.188V37.294H62.017V25.779H64.517V27.582C65.171 26.185 66.253 25.532 67.559 25.532H68.19ZM73.719 35.131V37.294H72.412C70.317 37.294 69.212 36.009 69.212 34.027V21.522H71.714V33.869C71.714 34.68 72.052 35.131 72.84 35.131H73.719ZM74.69 25.78H77.19V37.294H74.69V25.78ZM74.307 22.536C74.307 21.566 75.027 20.958 75.974 20.958C76.898 20.958 77.619 21.567 77.619 22.536C77.619 23.504 76.899 24.09 75.974 24.09C75.028 24.09 74.307 23.505 74.307 22.536ZM89.308 29.971V37.294H86.807V30.377C86.807 28.732 85.838 27.74 84.487 27.74C82.932 27.74 81.827 28.777 81.827 30.49V37.294H79.327V25.779H81.827V27.401C82.548 26.072 83.787 25.531 85.139 25.531C87.551 25.531 89.308 27.289 89.308 29.971ZM93.382 30.309H99.126C98.811 28.461 97.753 27.605 96.31 27.605C94.756 27.605 93.697 28.529 93.382 30.309ZM101.673 32.089H93.291C93.471 34.319 94.688 35.379 96.355 35.379C97.797 35.379 98.902 34.748 99.555 33.058L101.673 33.869C100.704 36.46 98.676 37.542 96.4 37.542C93.111 37.542 90.767 35.131 90.767 31.526C90.767 27.921 93.088 25.532 96.333 25.532C99.465 25.532 101.696 27.921 101.696 31.458C101.696 31.661 101.696 31.886 101.673 32.089ZM102.567 33.779L104.595 33.125C104.956 34.748 106.217 35.491 107.704 35.491C109.146 35.491 110.048 34.951 110.048 34.162C110.048 33.396 109.349 33.035 107.794 32.675L106.667 32.382C104.076 31.751 102.995 30.624 102.995 28.89C102.995 26.907 104.753 25.555 107.457 25.555C110.002 25.555 112.008 26.862 112.323 29.25L110.228 29.768C109.957 28.214 108.831 27.628 107.457 27.628C106.217 27.628 105.406 28.123 105.406 28.844C105.406 29.701 106.352 30.016 107.727 30.354L108.876 30.624C111.287 31.233 112.458 32.337 112.458 34.072C112.458 36.1 110.588 37.542 107.727 37.542C105.316 37.542 103.198 36.415 102.567 33.779ZM11.821 17.474C13.283 17.908 14.832 18.634 16.219 19.837C17.921 21.314 19.116 23.271 19.794 25.687L24.329 13.065L11.821 17.474ZM20.386 31.23L18.026 30.827C17.998 26.696 16.859 23.62 14.641 21.687C11.281 18.759 6.44503 19.353 6.39703 19.359L5.83203 17.009L25.935 9.921L27.482 11.479L20.385 31.231L20.386 31.23Z" fill="black"/>
<path d="M18.2491 34.7941H18.2611C22.4851 34.7941 26.4561 33.1511 29.4451 30.1661C30.9204 28.7007 32.0904 26.9573 32.8874 25.0367C33.6844 23.1161 34.0925 21.0565 34.0881 18.9771C34.0941 10.2501 26.9981 3.14412 18.2711 3.13812H18.2591C16.1818 3.13253 14.1239 3.53865 12.2045 4.333C10.285 5.12736 8.54198 6.2942 7.0761 7.76612C5.60062 9.23142 4.43044 10.9748 3.63329 12.8954C2.83614 14.816 2.42787 16.8757 2.4321 18.9551C2.4261 27.6831 9.5221 34.7871 18.2491 34.7941ZM18.2611 37.2261H18.2481C15.8491 37.2309 13.4731 36.7598 11.2574 35.8401C9.04172 34.9204 7.03048 33.5704 5.3401 31.8681C3.64027 30.1754 2.29305 28.1624 1.37644 25.9455C0.459825 23.7287 -0.00797969 21.352 0.000102976 18.9531C-0.00482677 16.5542 0.466104 14.1782 1.38564 11.9625C2.30517 9.74686 3.65503 7.73558 5.3571 6.04512C7.04834 4.34702 9.05931 3.00089 11.2738 2.0845C13.4883 1.16811 15.8625 0.699627 18.2591 0.706121H18.2731C20.6721 0.701378 23.0481 1.17249 25.2638 2.09219C27.4794 3.01189 29.4907 4.36192 31.1811 6.06412C32.8808 7.7569 34.2278 9.76998 35.1442 11.9868C36.0607 14.2037 36.5283 16.5803 36.5201 18.9791C36.525 21.378 36.0541 23.7541 35.1346 25.9697C34.215 28.1854 32.8652 30.1967 31.1631 31.8871C29.4719 33.5852 27.4609 34.9314 25.2464 35.8477C23.0319 36.7641 20.6577 37.2326 18.2611 37.2261Z" fill="black"/>
</svg>
