<svg width="174" height="46" viewBox="0 0 174 46" fill="none" xmlns="http://www.w3.org/2000/svg">
<path d="M0 24.71V24.32C0 17.94 3.48 10.4 12.45 10.4C19.45 10.4 23.82 14.85 24.24 19.91H18.71C18.36 17 15.89 15 12.45 15C7.15 15 5.45 20.22 5.45 24.28V24.71C5.45 28.88 7.19 33.91 12.45 33.95C15.89 33.95 18.4 31.95 18.75 29.08H24.28C23.85 34.14 19.45 38.55 12.45 38.55C3.48 38.55 0 31.2 0 24.71ZM26.18 32.94C26.18 29.04 29.04 27.49 33.02 26.76L37.39 26C37.97 25.89 38.28 25.62 38.28 25.15V24.96C38.28 23.76 37.04 22.72 35.34 22.72C34.6403 22.6681 33.9434 22.8529 33.3613 23.2446C32.7792 23.6363 32.3455 24.2123 32.13 24.88H26.76C26.99 21.17 30.43 18.16 35.53 18.16C40.63 18.16 44 20.65 44 24.86V38H39V37.3C39.034 36.6103 39.1933 35.9326 39.47 35.3L39.78 34.64H39.7L39 35.69C37.73 37.74 35 38.55 32.59 38.55C28.77 38.55 26.18 36.19 26.18 32.94ZM38.32 31.28V29.28L34.14 30.13C32.44 30.48 31.63 31.13 31.63 32.49C31.63 33.85 32.75 34.49 34.3 34.49C36.42 34.49 38.32 33.21 38.32 31.28ZM47.91 45.74V18.68H53.36V19.53C53.3142 20.2179 53.1554 20.8937 52.89 21.53L52.66 22.11L52.78 22.18L53.36 21.26C53.8654 20.2996 54.6276 19.4984 55.5617 18.9458C56.4957 18.3931 57.5649 18.1107 58.65 18.13C63.49 18.13 66.58 21.72 66.58 27.75V29C66.58 34.6 63.49 38.51 58.65 38.51C57.6214 38.5351 56.6051 38.2827 55.7077 37.7795C54.8104 37.2762 54.065 36.5407 53.55 35.65H53.36V45.74H47.91ZM61.13 29.12V27.61C61.13 24.24 59.47 22.16 57.3 22.16C55.13 22.16 53.4 24.16 53.4 27.34V29.34C53.4 32.51 55.02 34.56 57.4 34.56C59.51 34.57 61.13 32.48 61.13 29.12ZM68.26 32.79H73.79C74.06 34.1 75.22 34.79 77.12 34.79C79.02 34.79 80.25 33.93 80.25 32.79C80.25 31.79 79.82 31.36 77.42 30.86L74.14 30.24C70.47 29.51 68.61 27.57 68.61 24.48C68.61 20.61 71.78 18.26 77.04 18.26C82.3 18.26 85.27 20.38 85.35 24.17H80C79.88 22.86 78.76 22.17 77 22.17C75.24 22.17 74.1 22.91 74.1 24.11C74.1 25.31 74.68 25.65 76.81 26.11L80.21 26.76C84.04 27.46 85.89 29.28 85.89 32.25C85.89 36.25 82.49 38.71 77.08 38.71C71.67 38.71 68.46 36.53 68.26 32.79ZM88.75 29.65V18.56H94.21V29.92C94.21 32.86 95.21 34.45 97.11 34.45C99.35 34.45 101.11 32.63 101.11 29.73V18.56H106.53V37.89H101.11V37.35C101.159 36.6852 101.346 36.0379 101.66 35.45L101.85 35.14L101.77 35.07L101.11 35.88C100.497 36.6808 99.7067 37.3281 98.8007 37.7706C97.8948 38.2132 96.8983 38.4389 95.89 38.43C91.27 38.47 88.75 35.41 88.75 29.65ZM110.6 37.89V10.83H116V37.89H110.6ZM119 28.84V27.49C118.949 26.2293 119.16 24.9718 119.62 23.7967C120.079 22.6217 120.777 21.5546 121.67 20.6629C122.563 19.7712 123.631 19.0742 124.806 18.6159C125.982 18.1575 127.239 17.9478 128.5 18C134.11 18 137.97 21.9 137.97 27.47V29.36H124.52V29.71C124.52 32.3 126.03 34.39 128.52 34.39C130.3 34.39 131.65 33.27 132.27 31.22H137.72C136.87 35.7 133.39 38.41 128.52 38.41C122.78 38.43 119 34.64 119 28.84ZM132.41 26C132.1 23.57 130.67 22 128.54 22C126.41 22 124.9 23.51 124.54 26H132.41Z" fill="black"/>
<path d="M155.7 10.83H138V5.41H155.7V10.83ZM173.42 5.41H155.7V0H173.42V5.41Z" fill="black"/>
</svg>
