<svg width="98" height="51" viewBox="0 0 98 51" fill="none" xmlns="http://www.w3.org/2000/svg">
<path d="M8.09077 22.0594H6.36197V0.414911C6.35398 0.307521 6.3077 0.206562 6.23156 0.130414C6.15541 0.054266 6.05445 0.007988 5.94706 0H0.414911C0.307518 0.007988 0.206562 0.054266 0.130414 0.130414C0.0542656 0.206562 0.00798721 0.307521 0 0.414911V50.066C0.00798721 50.1733 0.0542656 50.2743 0.130414 50.3504C0.206562 50.4266 0.307518 50.4729 0.414911 50.4809H5.94706C6.05445 50.4729 6.15541 50.4266 6.23156 50.3504C6.3077 50.2743 6.35398 50.1733 6.36197 50.066V28.4906H8.09077V50.066C8.09875 50.1733 8.14503 50.2743 8.22118 50.3504C8.29733 50.4266 8.39828 50.4729 8.50568 50.4809H14.0378C14.1452 50.4729 14.2462 50.4266 14.3223 50.3504C14.3985 50.2743 14.4447 50.1733 14.4527 50.066V0.414911C14.4447 0.307521 14.3985 0.206562 14.3223 0.130414C14.2462 0.054266 14.1452 0.007988 14.0378 0H8.50568C8.39828 0.007988 8.29733 0.054266 8.22118 0.130414C8.14503 0.206562 8.09875 0.307521 8.09077 0.414911V22.0594ZM32.9163 50.4809H38.4484C38.5558 50.4729 38.6568 50.4266 38.7329 50.3504C38.8091 50.2743 38.8554 50.1733 38.8633 50.066V0.414911C38.8554 0.307521 38.8091 0.206562 38.7329 0.130414C38.6568 0.054266 38.5558 0.007988 38.4484 0H32.9163C32.8089 0.007988 32.7079 0.054266 32.6318 0.130414C32.5556 0.206562 32.5094 0.307521 32.5014 0.414911V50.066C32.4933 50.1223 32.4984 50.1798 32.5164 50.2338C32.5344 50.2879 32.5647 50.337 32.605 50.3772C32.6453 50.4175 32.6944 50.4478 32.7484 50.4658C32.8024 50.4838 32.8599 50.489 32.9163 50.4809ZM72.2637 0.414911V5.94706C72.2717 6.05445 72.3179 6.15541 72.3941 6.23156C72.4702 6.3077 72.5712 6.35398 72.6786 6.36197H74.1999V50.066C74.2079 50.1733 74.2542 50.2743 74.3304 50.3504C74.4065 50.4266 74.5075 50.4729 74.6148 50.4809H80.147C80.2544 50.4729 80.3553 50.4266 80.4315 50.3504C80.5076 50.2743 80.5539 50.1733 80.5619 50.066V6.43112H82.0832C82.1906 6.42313 82.2916 6.37686 82.3677 6.30071C82.4439 6.22456 82.4902 6.1236 82.4982 6.01621V0.484061C82.4902 0.376671 82.4439 0.275711 82.3677 0.199566C82.2916 0.123418 82.1906 0.077139 82.0832 0.069152H72.6786C72.6278 0.058768 72.5753 0.05995 72.525 0.072611C72.4747 0.085271 72.4279 0.109086 72.388 0.142292C72.3482 0.175497 72.3163 0.217241 72.2948 0.264433C72.2733 0.311621 72.2626 0.363051 72.2637 0.414911ZM24.3415 22.0594H22.6127V6.63858H24.3415V22.0594ZM30.3577 30.1502H24.8255C24.7181 30.1582 24.6172 30.2045 24.541 30.2806C24.4649 30.3568 24.4186 30.4577 24.4106 30.5651V43.8423H22.6818V29.5278C22.679 29.3909 22.7039 29.2547 22.755 29.1276C22.8061 29.0005 22.8824 28.885 22.9793 28.7881C23.0762 28.6912 23.1917 28.6149 23.3188 28.5638C23.4459 28.5126 23.5821 28.4877 23.7191 28.4906H28.6289C29.1963 28.4869 29.7394 28.2599 30.1407 27.8587C30.5419 27.4574 30.7689 26.9143 30.7726 26.3469V5.32469C30.7726 4.62544 30.6348 3.93304 30.3673 3.28702C30.0997 2.641 29.7074 2.05401 29.213 1.55957C28.7186 1.06512 28.1316 0.672911 27.4856 0.405321C26.8395 0.137728 26.1471 0 25.4479 0H21.5754C20.1632 0 18.8088 0.560991 17.8103 1.55957C16.8117 2.55814 16.2507 3.9125 16.2507 5.32469V45.1562C16.2507 46.5684 16.8117 47.9227 17.8103 48.9213C18.8088 49.9199 20.1632 50.4809 21.5754 50.4809H25.4479C26.1471 50.4809 26.8395 50.3431 27.4856 50.0755C28.1316 49.808 28.7186 49.4157 29.213 48.9213C29.7074 48.4268 30.0997 47.8399 30.3673 47.1938C30.6348 46.5478 30.7726 45.8554 30.7726 45.1562V30.6343C30.7785 30.5158 30.7388 30.3996 30.6616 30.3095C30.5844 30.2195 30.4756 30.1625 30.3577 30.1502ZM85.5408 28.4906H90.4506C90.5876 28.4877 90.7238 28.5126 90.8509 28.5638C90.978 28.6149 91.0935 28.6912 91.1904 28.7881C91.2873 28.885 91.3636 29.0005 91.4147 29.1276C91.4658 29.2547 91.4907 29.3909 91.4879 29.5278V43.8423H89.7591V30.6343C89.7511 30.5269 89.7048 30.4259 89.6287 30.3498C89.5525 30.2736 89.4516 30.2274 89.3442 30.2194H83.812C83.7046 30.2274 83.6037 30.2736 83.5275 30.3498C83.4514 30.4259 83.4051 30.5269 83.3971 30.6343V45.1562C83.3971 46.5684 83.9581 47.9227 84.9567 48.9213C85.9553 49.9199 87.3096 50.4809 88.7218 50.4809H92.5943C94.0065 50.4809 95.3609 49.9199 96.3595 48.9213C97.358 47.9227 97.919 46.5684 97.919 45.1562V24.2032C97.9154 23.6357 97.6884 23.0926 97.2871 22.6913C96.8859 22.2901 96.3427 22.0631 95.7753 22.0594H90.9347C90.7977 22.0623 90.6615 22.0374 90.5344 21.9862C90.4073 21.9351 90.2918 21.8588 90.1949 21.7619C90.098 21.665 90.0217 21.5496 89.9706 21.4224C89.9195 21.2953 89.8946 21.1592 89.8974 21.0222V6.63858H91.6262V19.9157C91.6342 20.0231 91.6805 20.1241 91.7566 20.2002C91.8328 20.2764 91.9337 20.3227 92.0411 20.3307H97.5733C97.6807 20.3227 97.7816 20.2764 97.8578 20.2002C97.9339 20.1241 97.9802 20.0231 97.9882 19.9157V5.39384C97.9882 3.98165 97.4272 2.62729 96.4286 1.62872C95.43 0.630141 94.0757 0.069152 92.6635 0.069152H88.791C87.3788 0.069152 86.0244 0.630141 85.0258 1.62872C84.0273 2.62729 83.4663 3.98165 83.4663 5.39384V26.3469C83.457 26.6251 83.5038 26.9023 83.6039 27.162C83.704 27.4217 83.8553 27.6587 84.0489 27.8587C84.2425 28.0587 84.4743 28.2178 84.7306 28.3263C84.9869 28.4349 85.2625 28.4907 85.5408 28.4906ZM53.0395 22.0594H48.3371C48.2298 22.0674 48.1288 22.1137 48.0526 22.1899C47.9765 22.266 47.9302 22.367 47.9222 22.4744V28.0065C47.9302 28.1139 47.9765 28.2149 48.0526 28.291C48.1288 28.3672 48.2298 28.4134 48.3371 28.4214H48.7521V43.8423H47.0233V6.63858H48.7521V19.9157C48.76 20.0231 48.8063 20.1241 48.8825 20.2002C48.9586 20.2764 49.0596 20.3227 49.167 20.3307H54.6991C54.8065 20.3227 54.9075 20.2764 54.9836 20.2002C55.0598 20.1241 55.106 20.0231 55.114 19.9157V5.39384C55.114 3.98165 54.553 2.62729 53.5545 1.62872C52.5559 0.630141 51.2015 0.069152 49.7893 0.069152H45.986C44.5738 0.069152 43.2194 0.630141 42.2209 1.62872C41.2223 2.62729 40.6613 3.98165 40.6613 5.39384V45.2253C40.6613 45.9246 40.799 46.617 41.0666 47.263C41.3342 47.909 41.7264 48.496 42.2209 48.9904C42.7153 49.4849 43.3023 49.8771 43.9483 50.1447C44.5943 50.4123 45.2867 50.55 45.986 50.55H49.8585C50.5577 50.55 51.2501 50.4123 51.8962 50.1447C52.5422 49.8771 53.1292 49.4849 53.6236 48.9904C54.1181 48.496 54.5103 47.909 54.7779 47.263C55.0454 46.617 55.1832 45.9246 55.1832 45.2253V24.2032C55.1796 23.6357 54.9525 23.0926 54.5513 22.6913C54.1501 22.2901 53.6069 22.0631 53.0395 22.0594ZM65.0027 22.0594H63.2739V0.414911C63.266 0.307521 63.2197 0.206562 63.1435 0.130414C63.0674 0.054266 62.9664 0.007988 62.859 0H57.3269C57.2195 0.007988 57.1185 0.054266 57.0424 0.130414C56.9662 0.206562 56.92 0.307521 56.912 0.414911V50.066C56.92 50.1733 56.9662 50.2743 57.0424 50.3504C57.1185 50.4266 57.2195 50.4729 57.3269 50.4809H62.859C62.9664 50.4729 63.0674 50.4266 63.1435 50.3504C63.2197 50.2743 63.266 50.1733 63.2739 50.066V28.4906H65.0027V50.066C65.0107 50.1733 65.057 50.2743 65.1331 50.3504C65.2093 50.4266 65.3103 50.4729 65.4176 50.4809H70.9498C71.0572 50.4729 71.1581 50.4266 71.2343 50.3504C71.3104 50.2743 71.3567 50.1733 71.3647 50.066V0.414911C71.3567 0.307521 71.3104 0.206562 71.2343 0.130414C71.1581 0.054266 71.0572 0.007988 70.9498 0H65.4176C65.3103 0.007988 65.2093 0.054266 65.1331 0.130414C65.057 0.206562 65.0107 0.307521 65.0027 0.414911V22.0594Z" fill="black"/>
</svg>
