<svg width="107" height="23" viewBox="0 0 107 23" fill="none" xmlns="http://www.w3.org/2000/svg">
<path d="M16.7817 15.4653V22.5709H4.02545C2.06329 22.5709 0.472657 20.9799 0.472657 19.0181C0.472657 17.0563 2.06329 15.4653 4.02545 15.4653H16.7817Z" fill="#808080"/>
<path d="M0.472717 18.9976L0.472709 18.9989C0.462105 20.9607 2.04412 22.5603 4.00625 22.5709L4.00821 22.5709C5.9694 22.5801 7.5676 20.9991 7.57821 19.0373L7.59741 15.4846L4.04466 15.4654C2.08287 15.4548 0.483858 17.0365 0.472717 18.9976Z" fill="black"/>
<path d="M7.57826 0.915771H0.472657V19.0167C0.473199 17.0556 2.06364 15.4653 4.02545 15.4653H7.57826V0.915771Z" fill="#808080"/>
<path d="M25.9939 14.0827H30.7242V16.4208H23.5489V4.0172H25.9939V14.0827Z" fill="black"/>
<path d="M33.4 12.931C33.7078 14.0408 34.5402 14.5957 35.8984 14.5964C36.276 14.6201 36.6543 14.5517 36.9994 14.3974C37.3453 14.2432 37.6477 14.0076 37.8826 13.7105L39.7246 14.773C38.8503 16.0378 37.5631 16.6699 35.8626 16.6692C34.3981 16.6692 33.2226 16.2259 32.3375 15.3394C31.6641 14.6857 31.2033 13.8446 31.0152 12.9256C30.827 12.0066 30.9191 11.0517 31.2811 10.1862C31.6425 9.32001 32.2563 8.58304 33.042 8.07144C33.8283 7.55917 34.75 7.29522 35.6886 7.31416C36.2889 7.29723 36.8864 7.40825 37.4414 7.64038C37.9956 7.8725 38.4936 8.21962 38.9031 8.66016C39.7496 9.55952 40.2051 10.7573 40.1706 11.9917C40.1679 12.3064 40.1381 12.6203 40.0819 12.9303L33.4 12.931ZM33.3648 11.1586H37.8812C37.7926 10.624 37.5043 10.1429 37.0752 9.81267C36.6719 9.51827 36.184 9.36195 35.6846 9.36804C35.1385 9.34638 34.6011 9.51149 34.1619 9.83767C33.7478 10.1693 33.4649 10.6376 33.3648 11.1586Z" fill="black"/>
<path d="M48.0715 7.56185H50.3558V16.4215H48.0715V15.3747C47.7268 15.8037 47.2851 16.1441 46.7831 16.3694C46.2807 16.5941 45.7326 16.6969 45.1833 16.6692C44.6087 16.6739 44.0409 16.5555 43.5165 16.3214C42.9921 16.0879 42.5234 15.7441 42.1434 15.3144C41.3277 14.3995 40.8771 13.2166 40.8771 11.9917C40.8771 10.7661 41.3277 9.58324 42.1434 8.66898C42.5234 8.23856 42.9921 7.89481 43.5165 7.66136C44.0409 7.42719 44.6087 7.30878 45.1833 7.31352C45.7326 7.28575 46.2807 7.38863 46.7831 7.61329C47.2851 7.83868 47.7268 8.1797 48.0715 8.60807V7.56185ZM43.8548 13.7904C44.0827 14.0219 44.3563 14.2032 44.6581 14.3244C44.9598 14.4448 45.2832 14.5023 45.6082 14.4922C45.9344 14.5017 46.2583 14.4441 46.5616 14.3237C46.8649 14.2025 47.1402 14.0212 47.3701 13.7904C47.8211 13.2998 48.0715 12.6583 48.0715 11.9924C48.0715 11.3265 47.8211 10.6843 47.3701 10.1943C47.1402 9.96354 46.8649 9.78218 46.5616 9.66108C46.2583 9.54058 45.9344 9.48377 45.6082 9.49323C45.2832 9.48308 44.9598 9.53994 44.6581 9.6604C44.3563 9.78085 44.0827 9.96286 43.8548 10.1943C43.4094 10.687 43.163 11.3278 43.163 11.9917C43.163 12.6562 43.4094 13.2971 43.8548 13.7904Z" fill="black"/>
<path d="M54.3587 9.08584C54.5469 8.54853 54.9213 8.0958 55.4136 7.81023C55.912 7.52397 56.4781 7.37712 57.0535 7.3839V9.93513C56.3983 9.84309 55.733 9.99468 55.1829 10.3615C54.6336 10.7282 54.3587 11.3359 54.3587 12.1845V16.4202H52.0736V7.56121H54.3575L54.3587 9.08584Z" fill="black"/>
<path d="M62.9531 7.31416C63.3985 7.30064 63.8423 7.38049 64.256 7.54829C64.6689 7.71545 65.0428 7.96788 65.353 8.288C65.9842 8.93762 66.3004 9.83566 66.3016 10.982V16.4215H64.0144V11.2642C64.0305 11.0172 63.9968 10.7702 63.9149 10.5367C63.8323 10.3039 63.7031 10.0901 63.5353 9.90873C63.3652 9.74903 63.1646 9.62517 62.9451 9.54463C62.726 9.46479 62.4929 9.42895 62.2598 9.44047C61.9985 9.42827 61.7373 9.47089 61.4934 9.56498C61.2494 9.65971 61.0271 9.80316 60.8417 9.9879C60.4553 10.4467 60.2647 11.0382 60.3105 11.6364V16.4208H58.0254V7.56185H60.3105V8.55459C60.8662 7.72901 61.7466 7.31553 62.9531 7.31416Z" fill="black"/>
<path d="M69.8266 12.931C70.1347 14.0408 70.9669 14.5951 72.3244 14.5951C72.7019 14.6194 73.0795 14.5518 73.4254 14.3974C73.7713 14.2432 74.0746 14.0076 74.3093 13.7105L76.1527 14.773C75.2776 16.0365 73.99 16.6685 72.2906 16.6692C70.8249 16.6692 69.6492 16.2259 68.7628 15.3395C68.0903 14.6857 67.6301 13.8446 67.4419 12.9263C67.2529 12.0073 67.3456 11.0524 67.7064 10.1869C68.0679 9.32134 68.681 8.5844 69.4666 8.07144C70.2523 7.55917 71.174 7.29454 72.1121 7.31284C72.7128 7.2959 73.311 7.40689 73.866 7.63901C74.4209 7.87182 74.9197 8.21962 75.3289 8.6602C76.1744 9.55956 76.629 10.7567 76.5953 11.9897C76.5941 12.305 76.564 12.619 76.5066 12.9283L69.8266 12.931ZM74.3077 11.1586C74.2199 10.624 73.9318 10.1429 73.502 9.81331C73.0988 9.51827 72.6108 9.36195 72.1113 9.36804C71.5652 9.34774 71.0279 9.51354 70.5881 9.83835C70.1745 10.1706 69.8916 10.6382 69.7909 11.1586H74.3077Z" fill="black"/>
<path d="M80.1203 9.0858C80.3089 8.54849 80.6832 8.09644 81.1752 7.81019C81.6739 7.52462 82.2397 7.3778 82.8135 7.38386V9.93509C82.1598 9.84373 81.4946 9.99536 80.9452 10.3615C80.3955 10.7282 80.1211 11.3359 80.1211 12.1845V16.4202H77.8347V7.56049H80.1211L80.1203 9.0858Z" fill="black"/>
<path d="M88.9434 7.31352C89.52 7.30742 90.091 7.42583 90.6182 7.65932C91.1455 7.89345 91.6165 8.23724 91.9993 8.66898C92.8143 9.58324 93.2649 10.7655 93.2649 11.991C93.2649 13.2159 92.8143 14.3981 91.9993 15.3131C91.6165 15.7441 91.1455 16.0879 90.6182 16.322C90.091 16.5555 89.52 16.6733 88.9434 16.6678C88.3965 16.6976 87.8504 16.5955 87.3512 16.3701C86.8517 16.1454 86.4131 15.8037 86.0728 15.3747V16.4195H83.7869V4.0172H86.0728V8.60743C86.4131 8.17769 86.8509 7.83663 87.3512 7.61125C87.8504 7.3859 88.3965 7.28443 88.9434 7.31352ZM86.7642 13.7891C86.9933 14.0205 87.2666 14.2019 87.5683 14.323C87.8708 14.4435 88.1943 14.5003 88.5193 14.4901C88.8455 14.4996 89.1693 14.4421 89.4726 14.3216C89.776 14.2012 90.0512 14.0198 90.2812 13.7891C90.7314 13.2985 90.9809 12.6569 90.9809 11.991C90.9809 11.3251 90.7314 10.6829 90.2812 10.1923C90.0512 9.96153 89.776 9.78017 89.4726 9.65971C89.1693 9.53926 88.8455 9.48176 88.5193 9.49123C88.1943 9.48108 87.87 9.53789 87.5683 9.65903C87.2666 9.77949 86.9933 9.96085 86.7642 10.1923C86.3192 10.6856 86.072 11.3265 86.072 11.991C86.072 12.6563 86.3192 13.2971 86.7642 13.7904V13.7891Z" fill="black"/>
<path d="M94.5244 16.4208V3.48731H96.8095V16.4208H94.5244Z" fill="black"/>
<path d="M104.322 7.56121H106.768L103.54 16.4357C103.078 17.6992 102.467 18.6182 101.707 19.192C100.884 19.7842 99.8751 20.0589 98.8655 19.9662V17.8372C99.3823 17.8765 99.8984 17.7398 100.327 17.4488C100.735 17.1036 101.034 16.6475 101.188 16.1353L97.5546 7.56053H100.054L102.364 13.5164L104.322 7.56121Z" fill="black"/>
</svg>
