<svg width="150" height="36" viewBox="0 0 150 36" fill="none" xmlns="http://www.w3.org/2000/svg">
<path d="M14.5488 0V9.71582L24.0664 0.19043V10.4004H28.1396V24.9697H24.0664V35.2373L14.5488 25.71V36H13.5488V25.7539L4.0752 35.2373V24.9697H0V10.4004H4.07422V0.19043L13.5488 9.67285V0H14.5488ZM5.0752 20.6104V32.8213L13.5488 24.3408V12.1289L5.0752 20.6104ZM14.5713 24.3184L23.0664 32.8213V24.9697H23.0645L23.0654 24.4697V20.6113L14.5713 12.1084V24.3184ZM24.0664 11.4023H15.2793L24.0664 20.1973V23.9697H27.1396V11.4004H24.0664V11.4023ZM1 23.9697H4.07422L4.0752 20.1973L12.8613 11.4023H4.07422V11.4004H1V23.9697ZM15.2793 10.4004H23.0664V2.60449L15.2793 10.4004ZM5.07422 10.4004H12.8613L5.07422 2.60449V10.4004Z" fill="black"/>
<path d="M55.4619 13.028C56.0549 11.919 56.8839 11.065 57.9529 10.464C59.0199 9.86502 60.2719 9.56502 61.7079 9.56502C63.1439 9.56502 64.3329 9.86002 65.3279 10.451C66.3239 11.042 67.0689 11.825 67.5619 12.8C68.0549 13.776 68.3019 14.845 68.3019 16.007V17.617H57.1309C57.2209 19.013 57.6919 20.123 58.5439 20.946C59.3959 21.77 60.5399 22.181 61.9769 22.181C63.1429 22.181 64.0369 21.944 64.6549 21.47C65.2749 20.996 65.7269 20.339 66.0149 19.497H68.5729C68.2319 20.803 67.5369 21.936 66.4869 22.893C65.4379 23.851 63.9339 24.329 61.9779 24.329C60.5059 24.329 59.2089 24.029 58.0869 23.43C56.9659 22.831 56.0989 21.976 55.4889 20.866C54.8789 19.756 54.5739 18.45 54.5739 16.946C54.5739 15.442 54.8699 14.137 55.4629 13.027L55.4619 13.028ZM65.6109 15.604C65.6109 14.387 65.2969 13.435 64.6689 12.745C64.0409 12.056 63.0539 11.712 61.7069 11.712C60.4509 11.712 59.4229 12.047 58.6249 12.718C57.8259 13.389 57.3369 14.352 57.1579 15.604H65.6109ZM71.6579 12.195C71.6579 12.321 71.7209 12.383 71.8469 12.383C71.9189 12.383 71.9719 12.365 72.0089 12.329C72.0459 12.293 72.0809 12.222 72.1159 12.115C72.5819 10.648 73.7399 9.91402 75.5889 9.91402H76.7729V12.329H75.2379C74.0349 12.329 73.1379 12.615 72.5449 13.188C71.9519 13.761 71.6559 14.7 71.6559 16.007V23.926H69.2329V9.96602H71.6579V12.195ZM90.9999 20.986C90.3629 22.104 89.5369 22.941 88.5229 23.495C87.5089 24.049 86.4179 24.327 85.2519 24.327C82.9549 24.327 81.3389 23.415 80.4059 21.589C80.3339 21.447 80.2439 21.375 80.1369 21.375C80.0299 21.375 79.9749 21.429 79.9749 21.536V29.025H77.5519V9.96802H79.9749V12.357C79.9749 12.464 80.0289 12.518 80.1369 12.518C80.2449 12.518 80.3339 12.446 80.4059 12.304C81.3389 10.478 82.9549 9.56602 85.2519 9.56602C86.4179 9.56602 87.5089 9.84402 88.5229 10.398C89.5369 10.952 90.3619 11.789 90.9999 12.908C91.6369 14.026 91.9559 15.374 91.9559 16.947C91.9559 18.52 91.6369 19.867 90.9999 20.986ZM88.1999 13.094C87.3109 12.172 86.1399 11.711 84.6869 11.711C83.2339 11.711 82.0619 12.172 81.1739 13.094C80.2849 14.016 79.9589 15.3 79.9589 16.946C79.9589 18.592 80.2849 19.877 81.1739 20.798C82.0629 21.72 83.2339 22.181 84.6869 22.181C86.1399 22.181 87.3119 21.721 88.1999 20.798C89.0889 19.876 89.5329 18.592 89.5329 16.946C89.5329 15.3 89.0889 14.016 88.1999 13.094ZM95.4719 4.59802V23.925H93.0489V4.60002H95.4719V4.59802ZM97.4669 13.027C98.0589 11.918 98.8889 11.064 99.9579 10.463C101.025 9.86402 102.277 9.56402 103.712 9.56402C105.147 9.56402 106.338 9.85902 107.333 10.45C108.329 11.041 109.074 11.824 109.567 12.799C110.061 13.775 110.307 14.844 110.307 16.006V17.616H99.1359C99.2259 19.012 99.6969 20.122 100.549 20.945C101.401 21.769 102.545 22.18 103.982 22.18C105.148 22.18 106.041 21.943 106.66 21.469C107.28 20.995 107.732 20.338 108.02 19.496H110.578C110.237 20.802 109.541 21.935 108.492 22.892C107.443 23.85 105.939 24.328 103.983 24.328C102.511 24.328 101.214 24.028 100.092 23.429C98.9709 22.83 98.1039 21.975 97.4939 20.865C96.8839 19.755 96.5789 18.449 96.5789 16.945C96.5789 15.441 96.8749 14.136 97.4679 13.026H97.4669V13.027ZM107.616 15.603C107.616 14.386 107.302 13.434 106.674 12.744C106.046 12.055 105.059 11.711 103.712 11.711C102.457 11.711 101.428 12.046 100.63 12.717C99.8309 13.388 99.3429 14.351 99.1629 15.603H107.616ZM109.229 23.388L114.774 16.542L110.225 10.503V9.96602H112.89L116.687 15.173L120.779 9.96602H123.497V10.53L118.275 16.946L123.094 23.388V23.925H120.483L116.364 18.315L111.95 23.925H109.231V23.388H109.229ZM127.015 5.42302V8.44402H124.185V5.42302H127.015ZM126.868 23.926H124.444V9.96702H126.868V23.926ZM127.632 9.96702H130.268V6.20902H132.692V9.96702H135.466L136.147 12.013H132.692V18.691C132.692 19.603 132.669 20.279 132.624 20.718C132.579 21.157 132.557 21.421 132.557 21.51C132.557 21.636 132.592 21.734 132.664 21.805C132.736 21.877 132.834 21.912 132.961 21.912C133.05 21.912 133.315 21.89 133.755 21.845C134.194 21.8 134.872 21.778 135.788 21.778H136.73V23.925H134.846C133.302 23.925 132.153 23.55 131.4 22.797C130.647 22.045 130.269 20.901 130.269 19.361V12.012H127.634V9.96602H127.632V9.96702ZM136.196 9.96702H138.666L142.677 21.678C142.732 21.822 142.817 22.011 143.092 22.011C143.367 22.011 143.452 21.821 143.506 21.678L147.517 9.96702H149.821V10.504L144.803 25.563C144.372 26.852 143.767 27.751 142.987 28.261C142.206 28.771 141.299 29.026 139.79 29.026H137.206V26.879H139.172C139.8 26.879 140.311 26.901 140.706 26.946C141.1 26.991 141.352 27.013 141.46 27.013C141.765 27.013 141.971 26.879 142.08 26.611L142.834 24.571C142.924 24.357 142.932 24.196 142.861 24.087C142.825 24.015 142.781 23.97 142.727 23.953C142.673 23.935 142.592 23.926 142.485 23.926H140.843L136.198 9.96802H136.196V9.96702ZM53.0339 21.009C52.3969 22.127 51.5709 22.964 50.5569 23.518C49.5429 24.072 48.4519 24.35 47.2859 24.35C44.9889 24.35 43.3729 23.438 42.4399 21.612C42.3679 21.47 42.2779 21.398 42.1709 21.398C42.0639 21.398 42.0089 21.452 42.0089 21.559V29.048H39.5859V9.99102H42.0089V12.38C42.0089 12.487 42.0629 12.541 42.1709 12.541C42.2789 12.541 42.3679 12.469 42.4399 12.327C43.3719 10.501 44.9889 9.58902 47.2859 9.58902C48.4519 9.58902 49.5429 9.86702 50.5569 10.421C51.5709 10.975 52.3959 11.812 53.0339 12.93C53.6709 14.048 53.9899 15.396 53.9899 16.97C53.9899 18.544 53.6709 19.891 53.0339 21.009ZM50.2339 13.117C49.3449 12.195 48.1739 11.734 46.7209 11.734C45.2679 11.734 44.0959 12.195 43.2079 13.117C42.3189 14.039 41.9929 15.323 41.9929 16.969C41.9929 18.615 42.3189 19.9 43.2079 20.821C44.0969 21.743 45.2679 22.204 46.7209 22.204C48.1739 22.204 49.3459 21.744 50.2339 20.821C51.1229 19.899 51.5669 18.615 51.5669 16.969C51.5669 15.323 51.1229 14.039 50.2339 13.117Z" fill="black"/>
</svg>
